<svg width="16" height="18" fill="none" xmlns="http://www.w3.org/2000/svg"><path opacity=".5" fill-rule="evenodd" clip-rule="evenodd" d="M5.478 1.383l-.624.36.042.05c.019.024.032.04.049.05l.483.28c.807.467 1.613.934 2.428 1.387.09.05.27.012.373-.047.798-.447 1.59-.905 2.381-1.362l.315-.182c.05-.029.095-.065.142-.102l.07-.055a1.996 1.996 0 01-.042-.036.267.267 0 00-.042-.033l-.189-.109-1.8-1.036a4.133 4.133 0 01-.313-.206C8.507.17 8.263-.002 8.021 0c-.26.002-.52.177-.778.35a4.527 4.527 0 01-.304.194 159.3 159.3 0 00-1.46.84zM1.202 3.841l-.658.379.637.367.003.001c.827.477 1.63.94 2.44 1.39.08.046.249-.01.349-.066.83-.469 1.656-.945 2.481-1.422l.248-.143a.958.958 0 00.125-.092c.023-.019.047-.039.075-.06l-.621-.357h-.002c-.802-.462-1.59-.915-2.381-1.36a.38.38 0 00-.316.002c-.786.442-1.567.892-2.38 1.36zM11.2 6.667l-.657.377c-.81.466-1.59.915-2.376 1.357a.39.39 0 01-.317.01c-.8-.45-1.596-.908-2.414-1.378a1108 1108 0 00-.635-.365l.429-.249h.001l.91-.526.361-.208c.42-.244.84-.486 1.265-.72.1-.055.268-.105.35-.06.807.45 1.607.912 2.433 1.387l.65.375zm-2.668 5.735v.696l.666-.382c.82-.47 1.61-.921 2.392-1.386.088-.052.14-.233.14-.354.01-.893.009-1.785.007-2.678l-.001-.39c0-.057-.007-.114-.016-.184l-.015-.123-.568.326c-.837.479-1.652.946-2.465 1.42a.307.307 0 00-.134.22c-.007.93-.006 1.86-.006 2.835zm-1.834.246c.242.144.487.288.736.43.005-.032.011-.06.017-.085a.56.56 0 00.017-.116l.002-.551c.002-.898.004-1.796-.01-2.694-.002-.116-.122-.272-.23-.337-.765-.453-1.537-.894-2.31-1.335l-.386-.22a1.211 1.211 0 00-.166-.074 4.037 4.037 0 01-.108-.043c0 .289.005.573.01.855.01.646.02 1.276-.026 1.903-.05.665.168 1.04.769 1.33.574.279 1.124.605 1.685.937zm1.863 5.3a3.081 3.081 0 00-.013-.09 1.05 1.05 0 01-.017-.161v-.998c0-.69 0-1.378-.009-2.067-.003-.23.075-.355.277-.468.613-.342 1.22-.693 1.828-1.044h.001l.807-.466a2.15 2.15 0 01.174-.086c.038-.017.08-.036.128-.06v1.329l.001.523c.002.507.004 1.013-.01 1.52-.002.126-.078.305-.178.364-.77.462-1.55.91-2.329 1.36l-.51.293a.394.394 0 01-.087.032.558.558 0 00-.063.02zm-1.726-.311l.63.363v-.718c.001-.97.001-1.895-.007-2.818-.001-.08-.09-.19-.167-.235-.963-.562-1.932-1.115-2.901-1.668l-.01-.005c-.016-.01-.038-.007-.068-.005a.439.439 0 01-.054.003v.69c-.001.91-.001 1.82.006 2.729 0 .085.065.208.137.25.796.469 1.596.93 2.434 1.414zM.608 5.482l-.604-.347v.75c-.001.958-.002 1.878.01 2.799.002.09.134.206.233.264.724.425 1.453.842 2.181 1.26l.388.222c.07.04.142.077.229.121l.15.078v-.673c0-.975.001-1.919-.006-2.862-.001-.071-.08-.169-.149-.209-.796-.464-1.595-.922-2.431-1.403zm12.194 5.165v-.703c-.001-.972-.001-1.9.005-2.828a.3.3 0 01.132-.218c.801-.469 1.606-.931 2.445-1.414l.61-.35v1.46c.002.654.002 1.308-.004 1.962-.001.104-.031.262-.102.304-.803.475-1.612.94-2.459 1.425l-.627.361zm2.652-6.428l-.604.348c-.834.48-1.64.943-2.448 1.4-.068.04-.194.048-.26.011-.821-.465-1.64-.936-2.484-1.422h-.001l-.593-.342c.267-.153.532-.302.794-.45.62-.348 1.224-.687 1.806-1.06.438-.282.764-.267 1.195.009.578.368 1.176.705 1.796 1.053.262.148.529.298.8.453zM.001 10.034l.48.277h.002l1.053.607.4.228c.348.197.696.394 1.036.603.1.062.212.205.213.312.013.917.01 1.835.008 2.752l-.001.558c0 .02-.007.04-.018.07l-.02.063-.243-.135a46.534 46.534 0 01-.497-.28l-.393-.224c-.594-.34-1.189-.68-1.778-1.029-.103-.062-.23-.197-.232-.3C0 12.646 0 11.756.001 10.82v-.787zm15.994.689v-.687l-.677.388c-.815.467-1.591.913-2.36 1.37-.09.053-.147.228-.15.348a98.618 98.618 0 00-.007 1.72l.001.569v1.071l.087-.03a.503.503 0 00.092-.036l.527-.302c.765-.436 1.529-.873 2.285-1.322.103-.061.188-.233.195-.358.016-.318.013-.637.01-.957l-.003-.38v-1.394z" fill="#fff"/></svg>