<svg width="12" height="18" fill="none" xmlns="http://www.w3.org/2000/svg"><path opacity=".5" fill-rule="evenodd" clip-rule="evenodd" d="M10.34 8.904l1.016.93c.368.335.644.984.644 1.477v3.62c0 .476-.277.69-.564.69a.78.78 0 01-.432-.148l-1.963-1.276c-.07-.045-.136-.1-.2-.16l-2.206 3.579c-.15.244-.372.384-.609.384-.236 0-.458-.141-.609-.386l-2.206-3.58c-.064.06-.13.11-.2.155l-1.963 1.269a.793.793 0 01-.443.131H.604c-.287 0-.604-.182-.604-.659v-3.619c0-.493.303-1.143.67-1.477l1.037-.93a20.998 20.998 0 01-.037-1.051C1.67 4.72 3.174 1.823 5.694.1a.591.591 0 01.663 0c2.52 1.722 4.022 4.62 4.022 7.753 0 .21-.013.587-.039 1.05zM4.53 6.545c0 .817.67 1.479 1.496 1.479.827 0 1.497-.662 1.497-1.479 0-.817-.67-1.479-1.497-1.479-.826 0-1.496.662-1.496 1.479z" fill="#fff"/></svg>