<svg width="12" height="17" fill="none" xmlns="http://www.w3.org/2000/svg"><path opacity=".5" fill-rule="evenodd" clip-rule="evenodd" d="M.04.396c0 .28-.001.554.001.827.002.148-.01.301-.02.455-.026.36-.052.722.083 1.022.128.284.405.509.684.735.14.115.282.23.405.353.17.17.352.228.6.228l1.661-.007c2.002-.01 4.004-.02 6.004.021.819.017 1.39-.192 1.942-.738.418-.413.641-.794.594-1.362a12.95 12.95 0 01-.02-1.338c.003-.196.007-.394.007-.592H8.723v.967H7.635V.005H4.37v.96H3.279V.01H.04v.386zm2.184 5.585h7.563v-.947H2.224v.947zm-1.067 7.985h9.721v-.958H1.157v.958zM11.959 17H.062v-1.989H11.96V17zm-9.662-5.023h7.428l-.902-4.963H3.198l-.9 4.963z" fill="#fff"/></svg>