<svg width="16" height="16" fill="none" xmlns="http://www.w3.org/2000/svg"><path opacity=".5" fill-rule="evenodd" clip-rule="evenodd" d="M5.676.356A7.942 7.942 0 0113.83 2.52c-.497 1.418-1.323 2.92-2.68 3.903A7.912 7.912 0 005.676.356zM1.807 2.922A8.023 8.023 0 014.132.988c3.088.37 5.693 2.77 6.161 5.945a5.868 5.868 0 01-1.958.529c-1.027-2.574-3.76-4.031-6.528-4.54zm12.722.45c-1.2 3.009-3.354 4.787-6.19 5.037-.516 1.015-.77 1.982-.775 2.878 3.856.226 7.052-2.299 8.081-5.67a7.935 7.935 0 00-1.116-2.246zM7.63 12.227c3.711.166 6.818-1.934 8.337-4.904.018.213.033.427.033.645 0 3.92-2.85 7.244-6.584 7.902a6.586 6.586 0 01-1.786-3.643zm-1.005-.915c0-1.077.286-2.199.897-3.383a5.194 5.194 0 00-1.19-1.848c-2.94 2.303-3.391 6.602-1.011 9.445.839.3 1.77.473 2.71.473.047 0 .093-.003.139-.006.034-.003.069-.005.103-.006a7.507 7.507 0 01-1.648-4.675zm-5.42-7.536c1.58.226 3.208.772 4.417 1.682-2.76 2.266-3.575 6.132-1.993 9.247A8.074 8.074 0 010 7.969a7.91 7.91 0 011.204-4.192z" fill="#fff"/></svg>