<svg width="18" height="18" fill="none" xmlns="http://www.w3.org/2000/svg"><path fill-rule="evenodd" clip-rule="evenodd" d="M3.966 2.893A2.662 2.662 0 012.864 3.98c-.28.148-.059.465-.059.465.287.435.548.873.764 1.254l-1.45 1.448H.713a.49.49 0 000 .98h1.609a.49.49 0 00.347-.143l5.295-5.29a.49.49 0 00.144-.347V.73a.49.49 0 10-.98 0v1.414l-1.444 1.44c-.39-.23-.842-.511-1.29-.821 0 0-.258-.183-.428.13zm-2.316.402a1.64 1.64 0 01-1.167-.483A1.636 1.636 0 010 1.647C0 1.207.171.794.483.483A1.642 1.642 0 011.65 0c.44 0 .854.172 1.166.483.312.31.483.724.483 1.164 0 .44-.172.854-.483 1.165a1.64 1.64 0 01-1.166.483zm4.613 3.397a.56.56 0 00-.79 0l-.546.546a.56.56 0 000 .79l9.328 9.317c.217.217.645.417.95.445l2.287.208a.45.45 0 00.506-.506l-.208-2.282a1.796 1.796 0 00-.445-.95l-9.33-9.319a.56.56 0 00-.79 0l-.546.547a.56.56 0 000 .79l7.81 7.801a.294.294 0 11-.416.416l-7.81-7.803z" fill="#6F6EFF"/></svg>