<svg width="14" height="18" fill="none" xmlns="http://www.w3.org/2000/svg"><path opacity=".5" d="M0 4.147v.377l.001 13.45c.101.01 3.836.033 5.624.016.185-.002.436-.098.54-.236.216-.289.018-.509-.231-.7-1.027-.79-.955-2.295.134-2.942a1.797 1.797 0 012.398.49 1.762 1.762 0 01-.33 2.404c-.092.074-.198.136-.272.224a.466.466 0 00.251.754.694.694 0 00.176.015l5.33.001h.377v-.343c0-1.723-.003-3.447.002-5.17 0-.273-.024-.526-.323-.637-.308-.113-.477.08-.647.295-.674.854-1.875.95-2.663.22a1.765 1.765 0 01.018-2.597 1.793 1.793 0 012.637.227c.169.215.337.412.644.308.301-.103.335-.353.334-.63-.005-1.735-.002-3.47-.002-5.204v-.322h-.401c-1.73 0-3.459-.003-5.188.003-.28 0-.53-.034-.632-.334-.096-.286.08-.453.29-.614.874-.668.981-1.84.25-2.63A1.808 1.808 0 005.692.558c-.736.786-.638 1.964.229 2.635.207.161.395.322.304.61-.1.318-.365.348-.658.347C3.838 4.144 2.11 4.147.38 4.147H0z" fill="#fff"/></svg>