<svg width="138" height="37" fill="none" xmlns="http://www.w3.org/2000/svg"><g clip-path="url(#clip0_0_278)"><g clip-path="url(#clip1_0_278)"><path d="M4.436 27.372h2.906c1.08 0 2.026-.148 2.84-.444.828-.31 1.478-.754 1.951-1.33.489-.578.733-1.273.733-2.086 0-.887-.245-1.62-.732-2.196-.474-.591-1.124-1.028-1.953-1.309-.813-.296-1.76-.443-2.839-.443h-5.7V35.09h6.077c1.228 0 2.292-.148 3.195-.444.902-.31 1.597-.783 2.085-1.42.502-.635.754-1.47.754-2.506 0-.784-.178-1.45-.533-1.996a4.08 4.08 0 00-1.375-1.376 6.048 6.048 0 00-1.93-.798 9.798 9.798 0 00-2.196-.244H4.436v2.04h2.862c.37 0 .702.038.998.111.31.06.584.163.82.311.237.148.422.34.555.577.133.236.2.517.2.843 0 .503-.118.902-.355 1.198a1.928 1.928 0 01-.91.62c-.384.119-.82.178-1.308.178H5.39V22.47h1.553c.65 0 1.153.133 1.508.4.355.266.533.665.533 1.198 0 .355-.082.658-.244.909a1.6 1.6 0 01-.71.555c-.296.133-.658.2-1.087.2H4.436v1.64zm14.42 7.719h7.83v-3.083h-7.83v3.083zm0-12.444h7.83v-3.083h-7.83v3.083zm0 5.79h7.386V25.42h-7.386v3.016zm-2.484-8.873V35.09h3.593V19.564h-3.593zm15.85 15.527h7.83v-3.083h-7.83v3.083zm0-12.444h7.83v-3.083h-7.83v3.083zm0 5.79h7.386V25.42H32.22v3.016zm-2.485-8.873V35.09h3.593V19.564h-3.593zm13.365 0V35.09h3.816V19.564h-3.816zm17.82 0v8.74l-10.714-9.517v16.304H53.8v-8.74l10.736 9.516V19.564H60.92zm5.344 3.35h4.259V35.09h3.749V22.913h4.28v-3.35H66.267v3.35zM82.737 35.09h7.83v-3.083h-7.83v3.083zm0-12.444h7.83v-3.083h-7.83v3.083zm0 5.79h7.387V25.42h-7.387v3.016zm-2.484-8.873V35.09h3.593V19.564h-3.593zM97.5 28.059l4.347 7.032h4.392l-4.857-7.032H97.5zm-3.882-8.495V35.09h3.749V19.564h-3.749zm2.351 3.172h3.04c.502 0 .93.081 1.286.244.369.162.65.399.843.71.192.295.288.657.288 1.086 0 .43-.096.799-.288 1.11a1.879 1.879 0 01-.843.687c-.355.148-.784.222-1.287.222H95.97V29.7h3.305c1.331 0 2.44-.215 3.328-.643.887-.43 1.56-1.02 2.018-1.775.459-.77.688-1.649.688-2.64 0-1.005-.229-1.885-.688-2.64-.458-.768-1.131-1.367-2.018-1.796-.888-.429-1.997-.643-3.328-.643H95.97v3.172zm22.725-3.172v8.74l-10.714-9.517v16.304h3.593v-8.74l10.736 9.516V19.564h-3.615zm8.605 10.07l-2.617 1.886c.354.739.85 1.42 1.486 2.04a7.311 7.311 0 002.24 1.486 7.406 7.406 0 002.817.533 6.75 6.75 0 002.107-.333 5.544 5.544 0 001.842-.931 4.422 4.422 0 001.286-1.531c.325-.621.488-1.323.488-2.107 0-.65-.103-1.228-.31-1.73a4.217 4.217 0 00-.866-1.331 5.009 5.009 0 00-1.242-.976 9.75 9.75 0 00-1.53-.732 28.666 28.666 0 01-1.864-.71c-.502-.222-.894-.466-1.175-.732a1.277 1.277 0 01-.399-.932c0-.34.14-.62.421-.843.281-.236.688-.355 1.22-.355.399 0 .769.082 1.109.244.355.148.673.363.954.644.296.266.554.584.776.953l2.862-1.597c-.266-.532-.651-1.057-1.154-1.574-.502-.518-1.138-.947-1.907-1.287-.755-.34-1.649-.51-2.684-.51-1.006 0-1.923.177-2.751.532-.813.34-1.464.843-1.952 1.509-.473.665-.71 1.456-.71 2.373 0 .769.141 1.427.422 1.974.281.532.636.99 1.064 1.375.429.37.88.673 1.354.91.488.236.916.421 1.286.554.754.281 1.361.533 1.819.755.458.221.791.458.998.71.207.236.311.554.311.953 0 .473-.178.85-.533 1.131-.355.267-.806.4-1.353.4a3.46 3.46 0 01-1.486-.333 4.54 4.54 0 01-1.286-.954 7.395 7.395 0 01-1.043-1.464z" fill="#fff"/></g><path d="M110.696 14h5.731v-1.18h-3.263l2.136-2.094a3.48 3.48 0 00.741-.976c.193-.365.29-.744.29-1.138 0-.25-.054-.508-.161-.773a2.14 2.14 0 00-.473-.73 2.281 2.281 0 00-.794-.536c-.322-.143-.701-.215-1.138-.215-.572 0-1.059.122-1.459.365a2.318 2.318 0 00-.902.987c-.2.415-.301.891-.301 1.428h1.256c0-.33.054-.62.161-.87.115-.25.276-.44.483-.568.208-.136.455-.204.741-.204.207 0 .39.035.547.107.158.064.29.154.397.268.115.115.197.244.247.387.057.136.086.275.086.418 0 .2-.032.39-.097.57a2.205 2.205 0 01-.289.536 5.949 5.949 0 01-.462.558L110.696 14zm7.937-3.757c0-.4.039-.769.118-1.105.079-.336.19-.626.333-.87.15-.243.329-.429.536-.558a1.23 1.23 0 01.687-.204c.265 0 .498.068.698.204a1.6 1.6 0 01.526.558c.15.244.265.534.343.87.079.336.118.705.118 1.105 0 .401-.039.77-.118 1.106a2.892 2.892 0 01-.343.87 1.69 1.69 0 01-.526.568 1.26 1.26 0 01-.698.193 1.28 1.28 0 01-.687-.193 1.789 1.789 0 01-.536-.569 3.115 3.115 0 01-.333-.87 4.834 4.834 0 01-.118-1.105zm-1.245 0c0 .78.122 1.46.365 2.04.25.58.594 1.03 1.03 1.352a2.53 2.53 0 001.524.483c.587 0 1.099-.16 1.535-.483.444-.322.787-.773 1.031-1.352.243-.58.364-1.26.364-2.04s-.121-1.46-.364-2.039c-.244-.58-.587-1.03-1.031-1.352-.436-.322-.948-.483-1.535-.483a2.53 2.53 0 00-1.524.483c-.436.322-.78.773-1.03 1.352-.243.58-.365 1.26-.365 2.04zM123.881 14h5.732v-1.18h-3.263l2.136-2.094a3.48 3.48 0 00.741-.976c.193-.365.289-.744.289-1.138 0-.25-.053-.508-.161-.773a2.122 2.122 0 00-.472-.73 2.281 2.281 0 00-.794-.536c-.322-.143-.701-.215-1.138-.215-.572 0-1.059.122-1.46.365a2.316 2.316 0 00-.901.987c-.201.415-.301.891-.301 1.428h1.256c0-.33.054-.62.161-.87.115-.25.276-.44.483-.568.208-.136.454-.204.741-.204.207 0 .39.035.547.107.157.064.29.154.397.268.115.115.197.244.247.387.057.136.086.275.086.418 0 .2-.032.39-.097.57a2.205 2.205 0 01-.289.536 5.949 5.949 0 01-.462.558L123.881 14zm6.478 0h5.732v-1.18h-3.263l2.136-2.094c.307-.286.554-.611.74-.976.193-.365.29-.744.29-1.138 0-.25-.054-.508-.161-.773a2.295 2.295 0 00-1.267-1.267c-.322-.142-.701-.214-1.137-.214-.573 0-1.059.122-1.46.365a2.318 2.318 0 00-.902.987c-.2.415-.3.891-.3 1.428h1.256c0-.33.053-.62.161-.87.114-.25.275-.44.483-.568.207-.136.454-.204.74-.204.208 0 .39.035.548.107.157.064.289.154.397.268.114.115.197.244.247.387.057.136.086.275.086.418 0 .2-.033.39-.097.57a2.177 2.177 0 01-.29.536 6.088 6.088 0 01-.461.558L130.359 14zM34.43 8.595a1.365 1.365 0 001.485-1.23.423.423 0 00.004-.073h-.79c-.082.315-.276.473-.698.473-.423 0-.644-.158-.71-.473h-.79a1.374 1.374 0 001.438 1.306c.019 0 .038-.003.062-.003zm-16.26 3.638V9.002h-.997v4.71h1.039l2.008-3.285v3.286h.996V9.002h-1.039l-2.008 3.231z" fill="#fff"/><path fill-rule="evenodd" clip-rule="evenodd" d="M12.223 10.05a1.966 1.966 0 011.81-1.01c.055 0 .105 0 .151.004a2.119 2.119 0 011.989 2.244c0 1.356-.845 2.513-2.403 2.513-1.597 0-2.458-1.172-2.458-3 0-2.091.504-3.42 2.295-3.659l2.078-.276.08 1.052-1.992.266c-1.279.165-1.5.799-1.55 1.867zm.116 1.134c0 .95.531 1.58 1.434 1.58.904 0 1.38-.58 1.38-1.476 0-.895-.6-1.249-1.38-1.249-.736 0-1.244.289-1.434.657v.488z" fill="#fff"/><path d="M40.656 9.002v1.763h-1.942V9.002h-.996v4.71h.996v-1.974h1.942v1.975h.996V9.002h-.996zm-7.237 3.231V9.002h-.996v4.71h1.038l2.008-3.285v3.286h.997V9.002h-1.04l-2.007 3.231zm-10.409-.349c-.108.526-.259.749-.561.749a1.32 1.32 0 01-.369-.038v1.09c.155.07.322.1.493.093a1.1 1.1 0 001.066-.738 4.81 4.81 0 00.232-1.145c.066-.63.097-1.26.097-1.894h1.326v3.712h.996V9.002h-3.155a22.91 22.91 0 01-.124 2.882z" fill="#fff"/><path fill-rule="evenodd" clip-rule="evenodd" d="M31.008 10.57l-.016 1.867c0 .288.124.407.442.411h.082v.907h-.276c-.674 0-1.062-.25-1.112-.819-.24.534-.783.873-1.372.857-.927 0-1.392-.515-1.392-1.318 0-.776.628-1.145 1.461-1.475l1.222-.476c-.05-.485-.38-.63-.869-.63-.477 0-.833.145-.887.58h-.958v-.016a1.71 1.71 0 011.845-1.56c1.093 0 1.845.488 1.83 1.672zm-2.694 1.71c0 .407.34.526.806.526.341.019.674-.104.915-.342l.012-1.276-.954.38c-.492.2-.78.358-.78.711z" fill="#fff"/><path d="M5.094 14.52c2.109.03 3.842-1.687 3.873-3.835-.035-2.152-1.768-3.87-3.873-3.839-2.108-.03-3.841 1.687-3.872 3.839.03 2.148 1.764 3.865 3.872 3.835z" fill="#FFC800"/><path d="M6.757 13.543c-1.314.754-2.74.888-3.651.439a3.895 3.895 0 003.919.027 3.823 3.823 0 001.934-3.382c-.054 1.007-.888 2.163-2.202 2.916zM5.583 7.13c.267.458-.376 1.322-1.438 1.93-1.063.607-2.136.73-2.404.272a.541.541 0 01-.03-.069.934.934 0 01.212-.78c.031-.046.066-.088.101-.134.31-.4.698-.734 1.136-.984a3.767 3.767 0 011.423-.484c.058-.008.112-.015.166-.02a.96.96 0 01.787.208c.016.02.035.039.047.062z" fill="#000"/><path d="M7.23 7.623c.465.799-.473 2.197-2.097 3.127-1.624.93-3.318 1.034-3.78.235a.975.975 0 01-.127-.442 3.783 3.783 0 00.395 1.833l.004.011c.147.242.357.438.605.565.91.484 2.45.319 3.892-.507 1.438-.823 2.352-2.064 2.387-3.086a1.43 1.43 0 00-.19-.799c-.054-.077-.108-.154-.166-.227A3.812 3.812 0 006.913 7.3c.131.08.24.192.317.323z" fill="#000"/><path d="M5.094 14.52c2.109.03 3.842-1.687 3.873-3.835-.035-2.152-1.768-3.87-3.873-3.839-2.108-.03-3.841 1.687-3.872 3.839.03 2.148 1.764 3.865 3.872 3.835z" fill="url(#paint0_radial_0_278)"/></g><defs><clipPath id="clip0_0_278"><path fill="#fff" d="M0 0h138v37H0z"/></clipPath><clipPath id="clip1_0_278"><path fill="#fff" transform="translate(0 10.09)" d="M0 0h139.131v26.909H0z"/></clipPath><radialGradient id="paint0_radial_0_278" cx="0" cy="0" r="1" gradientUnits="userSpaceOnUse" gradientTransform="matrix(3.87006 0 0 3.83456 5.093 10.684)"><stop offset=".5" stop-color="#fff" stop-opacity=".01"/><stop offset="1" stop-color="#fff" stop-opacity=".35"/></radialGradient></defs></svg>